<svg version="1.1" id="Слой_1" xmlns="http://www.w3.org/2000/svg" x="0" y="0" width="46.7" height="63.9" xml:space="preserve"><style>.st1{fill:#fff}</style><g opacity=".5"><path class="st1" d="M26.5 41.4c-.3 0-.6-.2-.7-.5-.1-.4.1-.8.5-.9.4-.1.9-.3 1.3-.5s.8 0 1 .3c.2.4 0 .8-.3 1-.5.2-1 .5-1.5.6h-.3m3.4-2c-.2 0-.4-.1-.5-.2-.3-.3-.2-.8.1-1 .4-.3.7-.6 1-1 .3-.3.7-.3 1-.1.3.3.3.7.1 1-.4.4-.7.8-1.2 1.2-.2.1-.3.1-.5.1m2.4-3.1c-.1 0-.2 0-.3-.1-.4-.2-.5-.6-.3-1s.4-.9.5-1.3c.1-.4.5-.6.9-.5.4.1.6.5.5.9l-.6 1.5c-.2.4-.4.5-.7.5M32.9 28.7c-.3 0-.6-.2-.7-.5-.1-.4-.3-.9-.5-1.3s0-.8.3-1c.4-.2.8 0 1 .3.2.5.5 1 .6 1.5.1.4-.1.8-.5.9 0 .1-.1.1-.2.1M31 25.2c-.2 0-.4-.1-.5-.2-.3-.4-.6-.7-1-1-.3-.3-.3-.7-.1-1 .3-.3.7-.3 1-.1.4.4.8.7 1.2 1.2.3.3.2.8-.1 1-.2.1-.3.1-.5.1m-3.1-2.4c-.1 0-.2 0-.3-.1-.4-.2-.9-.4-1.3-.5-.4-.1-.6-.5-.5-.9.1-.4.5-.6.9-.5l1.5.6c.4.2.5.6.3 1-.1.3-.3.4-.6.4M13.8 28.7h-.2c-.4-.1-.6-.5-.5-.9l.6-1.5c.2-.4.6-.5 1-.3s.5.6.3 1-.4.9-.5 1.3c-.1.2-.4.4-.7.4m1.9-3.5c-.2 0-.3-.1-.5-.2-.3-.3-.3-.7-.1-1 .4-.4.7-.8 1.2-1.2.3-.3.8-.2 1 .1.3.3.2.8-.1 1-.4.3-.7.6-1 1-.1.3-.3.3-.5.3m3.1-2.4c-.3 0-.5-.1-.6-.4-.2-.4 0-.8.3-1 .5-.2 1-.5 1.5-.6.4-.1.8.1.9.5.1.4-.1.8-.5.9-.4.1-.9.3-1.3.5-.1.1-.2.1-.3.1M20.2 41.4H20l-1.5-.6c-.4-.2-.5-.6-.3-1s.6-.5 1-.3.9.4 1.3.5c.4.1.6.5.5.9-.2.3-.5.5-.8.5m-3.4-2c-.2 0-.3-.1-.5-.2-.4-.4-.8-.7-1.2-1.2-.3-.3-.2-.8.1-1 .3-.3.8-.2 1 .1.3.4.6.7 1 1 .3.3.3.7.1 1-.1.3-.3.3-.5.3m-2.4-3.1c-.3 0-.5-.1-.6-.4-.2-.5-.5-1-.6-1.5-.1-.4.1-.8.5-.9.4-.1.8.1.9.5.1.4.3.9.5 1.3s0 .8-.3 1h-.4M23.4 41.9h-.8c-.4 0-.7-.4-.7-.8s.4-.7.8-.7h1.4c.4 0 .7.3.8.7 0 .4-.3.7-.7.8h-.8m-10.1-9.3c-.4 0-.7-.3-.7-.7v-.8-.8c0-.4.4-.7.8-.7s.7.4.7.8v1.4c0 .4-.3.7-.8.8.1 0 0 0 0 0m20.1 0c-.4 0-.7-.4-.7-.8v-.7-.7c0-.4.3-.7.7-.8.4 0 .7.3.8.7v1.6c-.1.4-.4.7-.8.7M22.6 21.8c-.4 0-.7-.3-.7-.7 0-.4.3-.7.7-.8h1.6c.4 0 .7.4.7.8s-.4.7-.8.7c-.5-.1-1-.1-1.5 0M42.5 12.4h-.2l-1.8-.5c-.4-.1-.6-.5-.5-.9.1-.4.5-.6.9-.5l1.8.5c.4.1.6.5.5.9-.1.3-.4.5-.7.5M38 11.1h-.2l-1.8-.5c-.4-.1-.6-.5-.5-.9.1-.4.5-.6.9-.5l1.8.5c.4.1.6.5.5.9-.1.3-.3.5-.7.5m-4.4-1.3h-.2l-1.8-.5c-.4-.1-.6-.5-.5-.9.1-.4.5-.6.9-.5l1.8.5c.4.1.6.5.5.9-.1.3-.4.5-.7.5m-4.4-1.4H29l-1.8-.5c-.4-.1-.6-.5-.5-.9.1-.4.5-.6.9-.5l1.8.5c.4.1.6.5.5.9-.1.3-.4.5-.7.5m-4.4-1.3h-.2l-1.8-.5c-.4-.1-.6-.5-.5-.9.1-.4.5-.6.9-.5l1.8.5c.4.1.6.5.5.9-.1.3-.4.5-.7.5m-4.4-1.4h-.2l-1.8-.5c-.4-.2-.6-.6-.5-.9.1-.4.5-.6.9-.5l1.8.5c.4.1.6.5.5.9-.1.3-.4.5-.7.5M16 4.4h-.2L14 3.8c-.4-.1-.6-.5-.5-.9.1-.4.5-.6.9-.5l1.8.6c.4.1.6.5.5.9-.1.3-.4.5-.7.5M11.5 3h-.2l-1.7-.5c-.4-.1-.6-.5-.5-.9.1-.4.5-.6.9-.5l1.8.5c.4.1.6.5.5.9-.2.3-.4.5-.8.5M45.7 32.2c-.4 0-.7-.3-.7-.7v-1.8c0-.4.3-.7.7-.7.4 0 .7.3.7.7v1.8c0 .4-.3.7-.7.7m.1-4.5c-.4 0-.7-.3-.7-.7v-1.8c0-.4.3-.7.7-.7.4 0 .7.3.7.7V27c0 .4-.3.7-.7.7m0-4.4c-.4 0-.7-.3-.7-.7v-1.8c0-.4.3-.7.7-.7.4 0 .7.3.7.7v1.8c0 .4-.3.7-.7.7m.1-4.4c-.4 0-.7-.3-.7-.7v-1.8c0-.4.3-.7.7-.7.4 0 .7.3.7.7v1.8c0 .3-.3.7-.7.7M17.2 62.8c-.3 0-.6-.2-.7-.5-.1-.4.1-.8.5-.9.5-.2 1.1-.4 1.7-.6.4-.1.8.1.9.4.1.4-.1.8-.4.9-.6.2-1.2.4-1.7.6-.1.1-.2.1-.3.1m4.3-1.6c-.3 0-.6-.2-.7-.4-.1-.4 0-.8.4-.9.5-.2 1.1-.4 1.7-.7.4-.2.8 0 .9.4.2.4 0 .8-.4.9-.6.3-1.2.5-1.7.7h-.2m4.2-1.8c-.3 0-.5-.2-.6-.4-.2-.4 0-.8.3-1 .5-.3 1.1-.5 1.6-.8.4-.2.8 0 1 .3.2.4 0 .8-.3 1-.6.3-1.1.6-1.7.8-.1.1-.2.1-.3.1m4-2.1c-.2 0-.5-.1-.6-.4-.2-.3-.1-.8.3-1 .5-.3 1-.6 1.6-.9.3-.2.8-.1 1 .2.2.3.1.8-.2 1-.5.3-1.1.6-1.6.9-.3.2-.4.2-.5.2m3.8-2.4c-.2 0-.4-.1-.6-.3-.2-.3-.1-.8.2-1 .5-.3 1-.7 1.5-1.1.3-.2.8-.2 1 .1.2.3.2.8-.1 1-.5.4-1 .7-1.5 1.1-.2.2-.3.2-.5.2m3.6-2.8c-.2 0-.4-.1-.5-.2-.3-.3-.2-.8.1-1 .5-.4.9-.8 1.3-1.2.3-.3.7-.3 1 0 .3.3.3.7 0 1-.4.4-.9.8-1.4 1.3-.1.1-.3.1-.5.1m3.3-3.2c-.2 0-.3-.1-.5-.2-.3-.3-.3-.7-.1-1 .4-.5.8-.9 1.1-1.4.2-.3.7-.4 1-.1.3.2.4.7.1 1l-1.2 1.5c0 .2-.2.2-.4.2m2.6-3.6c-.1 0-.2 0-.4-.1-.3-.2-.5-.6-.3-1 .3-.5.6-1 .8-1.6.2-.4.6-.5 1-.3s.5.6.3 1c-.3.6-.6 1.1-.9 1.7 0 .1-.2.3-.5.3m1.8-4.2h-.2c-.4-.1-.6-.5-.5-.9.2-.6.3-1.1.4-1.7.1-.4.5-.6.8-.6s.6.5.6.8c-.1.6-.3 1.2-.5 1.8 0 .4-.3.6-.6.6M13.8 63.9c-.3 0-.6-.2-.7-.5-.1-.4.1-.8.5-.9 0 0 .3-.1.9-.2.4-.1.8.1.9.5.1.4-.1.8-.5.9-.6.2-.9.2-.9.2-.1-.1-.2 0-.2 0m31.9-27.2c-.1 0-.1 0 0 0-.4 0-.7-.4-.7-.8v-1.8c0-.4.3-.7.7-.7.4 0 .7.3.7.7v1.8c-.1.5-.4.8-.7.8m.3-22.3c-.4 0-.7-.3-.7-.7v-.3l-.4-.1c-.4-.1-.6-.5-.5-.9.1-.4.5-.6.9-.5l1.4.4v1.4c0 .4-.3.7-.7.7"/><path class="st1" d="M4.3 12.4c-.3 0-.6-.2-.7-.5-.1-.3.1-.7.4-.9l1.8-.5c.4-.1.8.1.9.5.1.4-.1.8-.5.9l-1.8.5h-.1m4.4-1.3c-.3 0-.6-.2-.7-.5-.1-.4.1-.8.5-.9l1.8-.5c.3-.2.7.1.8.4.1.4-.1.8-.5.9l-1.8.5c0 .1-.1.1-.1.1m4.4-1.3c-.3 0-.6-.2-.7-.5-.1-.4.1-.8.5-.9l1.8-.5c.4-.1.8.1.9.5.1.4-.1.8-.5.9l-1.8.5c-.1-.1-.1 0-.2 0m4.4-1.4c-.3 0-.6-.2-.7-.5-.1-.4.1-.8.5-.9l1.8-.5c.4-.1.8.1.9.5.1.4-.1.8-.5.9l-1.8.5h-.2m4.4-1.3c-.3 0-.6-.2-.7-.5-.1-.4.1-.8.5-.9l1.8-.5c.4-.1.8.1.9.5.1.4-.1.8-.5.9l-1.8.4c0 .1-.1.1-.2.1m4.4-1.4c-.3 0-.6-.2-.7-.5-.1-.4.1-.8.5-.9l1.8-.5c.4-.1.8.1.9.5.1.4-.1.8-.5.9l-1.8.5h-.2m4.5-1.3c-.3 0-.6-.2-.7-.5-.1-.4.1-.8.5-.9l1.8-.5c.4-.1.8.1.9.5.1.4-.1.8-.5.9l-1.8.5h-.2M35.2 3c-.3 0-.6-.2-.7-.5-.1-.4.1-.8.5-.9l1.8-.5c.4-.1.8.1.9.5.1.4-.1.8-.5.9l-1.8.5h-.2M1 32.2c-.4 0-.7-.3-.7-.7v-1.8c0-.4.3-.7.7-.7.4 0 .7.3.7.7v1.8c0 .4-.3.7-.7.7zm0-4.5c-.4 0-.7-.3-.7-.7v-1.8c0-.4.3-.7.7-.7.4 0 .7.3.7.7V27c0 .4-.3.7-.7.7zm-.1-4.4c-.4 0-.7-.3-.7-.7v-1.8c0-.4.3-.7.7-.7.4 0 .7.3.7.7v1.8c0 .4-.3.7-.7.7zm-.1-4.4c-.4 0-.7-.3-.7-.7v-1.8c0-.4.3-.7.7-.7.4 0 .7.3.7.7v1.8c0 .3-.3.6-.7.7zM29.5 62.8h-.2c-.5-.2-1.1-.4-1.7-.6-.4-.1-.6-.5-.4-.9.1-.4.5-.6.9-.4.6.2 1.2.4 1.7.6.4.1.6.5.5.9-.2.2-.5.4-.8.4m-4.3-1.6c-.1 0-.2 0-.3-.1-.6-.2-1.1-.5-1.7-.7-.4-.2-.5-.6-.4-.9.2-.4.6-.5.9-.4.6.2 1.1.5 1.7.7.4.1.5.6.4.9 0 .4-.3.5-.6.5m-4.1-1.8c-.1 0-.2 0-.3-.1-.5-.3-1.1-.5-1.7-.8-.4-.2-.5-.6-.3-1s.6-.5 1-.3c.5.3 1.1.5 1.6.8.4.2.5.6.3 1-.1.3-.4.4-.6.4M17 57.3c-.1 0-.2 0-.4-.1-.5-.3-1.1-.6-1.6-.9-.3-.2-.4-.6-.2-1 .2-.3.6-.4 1-.2.5.3 1 .6 1.6.9.3.2.5.6.3 1-.2.2-.4.3-.7.3m-3.8-2.4c-.1 0-.3 0-.4-.1-.5-.4-1-.7-1.5-1.1-.3-.2-.4-.7-.1-1 .2-.3.7-.4 1-.1.5.4 1 .7 1.5 1.1.3.2.4.7.2 1-.3.1-.5.2-.7.2m-3.6-2.8c-.2 0-.3-.1-.5-.2-.5-.4-.9-.8-1.4-1.3-.3-.3-.3-.7 0-1 .3-.3.7-.3 1 0 .4.4.9.8 1.3 1.2.3.3.3.7.1 1-.1.3-.3.3-.5.3m-3.2-3.2c-.2 0-.4-.1-.5-.2l-1.2-1.5c-.2-.3-.2-.8.1-1 .3-.2.8-.2 1 .1.3.5.7.9 1.1 1.4.3.3.2.8-.1 1-.1.2-.3.2-.4.2m-2.7-3.6c-.2 0-.5-.1-.6-.4-.3-.6-.6-1.1-.9-1.7-.2-.4 0-.8.3-1 .4-.2.8 0 1 .3.2.5.5 1 .8 1.6.2.3.1.8-.3 1 0 .1-.2.2-.3.2m-1.8-4.2c-.3 0-.6-.2-.7-.5-.2-.6-.3-1.2-.5-1.8-.1-.4.2-.8.6-.8.4-.1.8.2.8.6.1.6.3 1.1.4 1.7.1.4-.1.8-.5.9 0-.1 0-.1-.1-.1M1.1 36.7c-.4 0-.7-.3-.7-.7v-1.8c0-.4.3-.7.7-.7.4 0 .7.3.7.7V36c0 .3-.3.6-.7.7M.7 14.4c-.4 0-.7-.3-.7-.7v-1.4l1.4-.4c.4-.1.8.1.9.5.1.4-.1.8-.5.9l-.4.1v.3c.1.4-.2.7-.7.7.1 0 0 0 0 0M39.6 1.7c-.3 0-.6-.2-.7-.5-.1-.4.1-.8.5-.9l.9-.3c.4-.1.8.1.9.5.1.4-.1.8-.5.9l-.9.3h-.2M32.8 63.8s-.3-.1-.9-.2c-.4-.1-.6-.5-.5-.9.1-.4.5-.6.9-.5.5.2.9.2.9.2.4.1.6.5.5.9-.1.3-.4.5-.7.5-.1.1-.2 0-.2 0"/></g></svg>