<svg version="1.1" id="Слой_1" xmlns="http://www.w3.org/2000/svg" x="0" y="0" width="97.7" height="68.5" xml:space="preserve"><style>.st1{fill:#fff}</style><g opacity=".5"><path class="st1" d="M70.8 44.2c-.3 0-.5-.2-.7-.4-.2-.4 0-.8.4-.9.6-.3 1.2-.6 1.7-1 .3-.2.8-.2 1 .2.2.3.2.8-.2 1-.6.4-1.3.8-2 1.1h-.2m3.9-3.2c-.1 0-.3 0-.4-.1-.3-.2-.4-.7-.2-1 .4-.5.7-1.1 1-1.7.2-.4.6-.5.9-.4.4.2.5.6.4.9-.3.7-.7 1.4-1.1 2-.2.2-.4.3-.6.3M75.8 31.3c-.3 0-.5-.2-.7-.4-.3-.6-.6-1.2-1-1.7-.2-.3-.2-.8.2-1 .3-.2.8-.2 1 .2.4.6.8 1.3 1.1 2 .2.4 0 .8-.4.9h-.2m-3.2-3.9c-.1 0-.3 0-.4-.1-.5-.4-1.1-.7-1.7-1-.4-.2-.5-.6-.4-.9.2-.4.6-.5.9-.4.7.3 1.4.7 2 1.1.3.2.4.7.2 1-.2.2-.4.3-.6.3M57.9 31.3c-.1 0-.2 0-.3-.1-.4-.2-.5-.6-.4-.9.3-.7.7-1.4 1.1-2 .2-.3.7-.4 1-.2.3.2.4.7.2 1-.4.5-.7 1.1-1 1.7-.1.3-.4.5-.6.5m3.1-3.9c-.2 0-.4-.1-.6-.3-.2-.3-.2-.8.2-1 .6-.4 1.3-.8 2-1.1.4-.2.8 0 .9.4.2.4 0 .8-.4.9-.6.3-1.2.6-1.7 1-.1 0-.2.1-.4.1M62.9 44.2c-.1 0-.2 0-.3-.1-.7-.3-1.4-.7-2-1.1-.3-.2-.4-.7-.2-1 .2-.3.7-.4 1-.2.5.4 1.1.7 1.7 1 .4.2.5.6.4.9-.1.3-.4.5-.6.5m-4-3.2c-.2 0-.4-.1-.6-.3-.4-.6-.8-1.3-1.1-2-.2-.4 0-.8.4-.9.4-.2.8 0 .9.4.3.6.6 1.2 1 1.7.2.3.2.8-.2 1-.1.1-.2.1-.4.1M66.8 45c-.4 0-.8 0-1.1-.1-.4 0-.7-.4-.6-.8 0-.4.4-.7.8-.6.6.1 1.3.1 2 0 .4 0 .7.2.8.6 0 .4-.2.7-.6.8-.5.1-.9.1-1.3.1m-9.7-8.7c-.4 0-.7-.3-.7-.6 0-.4-.1-.8-.1-1.1 0-.4 0-.8.1-1.1 0-.4.4-.7.8-.6.4 0 .7.4.6.8 0 .3-.1.7-.1 1 0 .3 0 .7.1 1 0 .2-.2.6-.7.6m19.4 0c-.5 0-.8-.4-.7-.8 0-.3.1-.6.1-1 0-.3 0-.7-.1-1 0-.4.2-.7.6-.8.4 0 .7.2.8.6 0 .4.1.8.1 1.1 0 .4 0 .8-.1 1.1 0 .5-.3.8-.7.8m-8.6-10.8c-.1 0-.1 0 0 0-.7-.1-1.4-.1-2 0-.4 0-.7-.2-.8-.6 0-.4.2-.7.6-.8.7-.1 1.5-.1 2.3 0 .4 0 .7.4.6.8-.1.3-.4.6-.7.6M84.4 65.1c-.4 0-.7-.3-.7-.7v-1.7c0-.4.3-.7.7-.7.4 0 .7.3.7.7v1.7c0 .3-.3.7-.7.7m0-4.4c-.4 0-.7-.3-.7-.7v-1.7c0-.4.3-.7.7-.7.4 0 .7.3.7.7V60c0 .4-.3.7-.7.7m0-4.3c-.4 0-.7-.3-.7-.7V54c0-.4.3-.7.7-.7.4 0 .7.3.7.7v1.7c0 .3-.3.7-.7.7m0-4.4c-.4 0-.7-.3-.7-.7v-1.7c0-.4.3-.7.7-.7.4 0 .7.3.7.7v1.7c0 .4-.3.7-.7.7m0-4.3c-.4 0-.7-.3-.7-.7v-1.7c0-.4.3-.7.7-.7.4 0 .7.3.7.7V47c0 .4-.3.7-.7.7m0-4.4c-.4 0-.7-.3-.7-.7v-1.7c0-.4.3-.7.7-.7.4 0 .7.3.7.7v1.7c0 .4-.3.7-.7.7m0-4.3c-.4 0-.7-.3-.7-.7v-1.7c0-.4.3-.7.7-.7.4 0 .7.3.7.7v1.7c0 .4-.3.7-.7.7m0-4.4c-.4 0-.7-.3-.7-.7v-1.7c0-.4.3-.7.7-.7.4 0 .7.3.7.7v1.7c0 .4-.3.7-.7.7m0-4.3c-.4 0-.7-.3-.7-.7v-1.7c0-.4.3-.7.7-.7.4 0 .7.3.7.7v1.7c0 .4-.3.7-.7.7m0-4.4c-.4 0-.7-.3-.7-.7v-1.7c0-.4.3-.7.7-.7.4 0 .7.3.7.7v1.7c0 .4-.3.7-.7.7m0-4.3c-.4 0-.7-.3-.7-.7v-1.7c0-.4.3-.7.7-.7.4 0 .7.3.7.7v1.7c0 .4-.3.7-.7.7m0-4.4c-.4 0-.7-.3-.7-.7v-1.7c0-.4.3-.7.7-.7.4 0 .7.3.7.7v1.7c0 .4-.3.7-.7.7M80.9 12h-1.8c-.4 0-.7-.3-.7-.7 0-.4.3-.7.7-.7h1.8c.4 0 .7.3.7.7 0 .4-.4.7-.7.7m-4.5 0h-1.8c-.4 0-.7-.3-.7-.7 0-.4.3-.7.7-.7h1.8c.4 0 .7.3.7.7.1.4-.3.7-.7.7M72 12h-1.8c-.4 0-.7-.3-.7-.7 0-.4.3-.7.7-.7H72c.4 0 .7.3.7.7.1.4-.3.7-.7.7m-4.4 0h-1.8c-.4 0-.7-.3-.7-.7 0-.4.3-.7.7-.7h1.8c.4 0 .7.3.7.7.1.4-.3.7-.7.7m-4.4 0h-1.8c-.4 0-.7-.3-.7-.7 0-.4.3-.7.7-.7h1.8c.4 0 .7.3.7.7.1.4-.3.7-.7.7m-4.4 0H57c-.4 0-.7-.3-.7-.7 0-.4.3-.7.7-.7h1.8c.4 0 .7.3.7.7.1.4-.3.7-.7.7m-4.4 0h-1.8c-.4 0-.7-.3-.7-.7 0-.4.3-.7.7-.7h1.8c.4 0 .7.3.7.7 0 .4-.3.7-.7.7M50 12h-1.8c-.4 0-.7-.3-.7-.7 0-.4.3-.7.7-.7H50c.4 0 .7.3.7.7 0 .4-.3.7-.7.7m-4.4 0h-1.8c-.4 0-.7-.3-.7-.7 0-.4.3-.7.7-.7h1.8c.4 0 .7.3.7.7 0 .4-.3.7-.7.7m-4.4 0h-1.8c-.4 0-.7-.3-.7-.7 0-.4.3-.7.7-.7h1.8c.4 0 .7.3.7.7 0 .4-.3.7-.7.7m-4.4 0H35c-.4 0-.7-.3-.7-.7 0-.4.3-.7.7-.7h1.8c.4 0 .7.3.7.7 0 .4-.3.7-.7.7m-4.4 0h-1.8c-.4 0-.7-.3-.7-.7 0-.4.3-.7.7-.7h1.8c.4 0 .7.3.7.7 0 .4-.3.7-.7.7M28 12h-1.8c-.4 0-.7-.3-.7-.7 0-.4.3-.7.7-.7H28c.4 0 .7.3.7.7 0 .4-.3.7-.7.7m-4.4 0h-1.8c-.4 0-.7-.3-.7-.7 0-.4.3-.7.7-.7h1.8c.4 0 .7.3.7.7 0 .4-.3.7-.7.7m-4.4 0h-1.8c-.4 0-.7-.3-.7-.7 0-.4.3-.7.7-.7h1.8c.4 0 .7.3.7.7 0 .4-.3.7-.7.7m-4.4 0H13c-.4 0-.7-.3-.7-.7 0-.4.3-.7.7-.7h1.8c.4 0 .7.3.7.7 0 .4-.3.7-.7.7m-4.4 0H8.6c-.4 0-.7-.3-.7-.7 0-.4.3-.7.7-.7h1.8c.4 0 .7.3.7.7 0 .4-.3.7-.7.7M6 12H4.2c-.4 0-.7-.3-.7-.7 0-.4.3-.7.7-.7H6c.4 0 .7.3.7.7 0 .4-.3.7-.7.7M84.4 68.5c-.4 0-.7-.3-.7-.7V67c0-.4.3-.7.7-.7.4 0 .7.3.7.7v.9c0 .3-.3.6-.7.6m0-55.6c-.4 0-.7-.3-.7-.7V12h-.2c-.4 0-.7-.3-.7-.7 0-.4.3-.7.7-.7h1.6v1.6c0 .4-.3.7-.7.7M1.6 12H.7c-.4 0-.7-.3-.7-.7 0-.4.3-.7.7-.7h.9c.4 0 .7.3.7.7 0 .4-.3.7-.7.7"/><path class="st1" d="M13.4 54.5c-.4 0-.7-.3-.7-.7V52c0-.4.3-.7.7-.7.4 0 .7.3.7.7v1.7c0 .4-.3.8-.7.8m0-4.4c-.4 0-.7-.3-.7-.7v-1.7c0-.4.3-.7.7-.7.4 0 .7.3.7.7v1.7c0 .4-.3.7-.7.7m0-4.3c-.4 0-.7-.3-.7-.7v-1.7c0-.4.3-.7.7-.7.4 0 .7.3.7.7V45c0 .4-.3.8-.7.8m0-4.4c-.4 0-.7-.3-.7-.7V39c0-.4.3-.7.7-.7.4 0 .7.3.7.7v1.7c0 .4-.3.7-.7.7m0-4.3c-.4 0-.7-.3-.7-.7v-1.7c0-.4.3-.7.7-.7.4 0 .7.3.7.7v1.7c0 .3-.3.7-.7.7m0-4.4c-.4 0-.7-.3-.7-.7v-1.7c0-.4.3-.7.7-.7.4 0 .7.3.7.7V32c0 .4-.3.7-.7.7m0-4.3c-.4 0-.7-.3-.7-.7V26c0-.4.3-.7.7-.7.4 0 .7.3.7.7v1.7c0 .4-.3.7-.7.7m0-4.4c-.4 0-.7-.3-.7-.7v-1.7c0-.4.3-.7.7-.7.4 0 .7.3.7.7v1.7c0 .4-.3.7-.7.7m0-4.3c-.4 0-.7-.3-.7-.7v-1.7c0-.4.3-.7.7-.7.4 0 .7.3.7.7V19c0 .4-.3.7-.7.7m0-4.4c-.4 0-.7-.3-.7-.7v-1.7c0-.4.3-.7.7-.7.4 0 .7.3.7.7v1.7c0 .4-.3.7-.7.7m0-4.3c-.4 0-.7-.3-.7-.7V8.5c0-.4.3-.7.7-.7.4 0 .7.3.7.7v1.7c0 .5-.3.8-.7.8m0-4.4c-.4 0-.7-.3-.7-.7V4.2c0-.4.3-.7.7-.7.4 0 .7.3.7.7v1.7c0 .4-.3.7-.7.7M93.5 57.9h-1.8c-.4 0-.7-.3-.7-.7 0-.4.3-.7.7-.7h1.8c.4 0 .7.3.7.7 0 .4-.3.7-.7.7m-4.4 0h-1.8c-.4 0-.7-.3-.7-.7 0-.4.3-.7.7-.7h1.8c.4 0 .7.3.7.7 0 .4-.3.7-.7.7m-4.4 0h-1.8c-.4 0-.7-.3-.7-.7 0-.4.3-.7.7-.7h1.8c.4 0 .7.3.7.7 0 .4-.3.7-.7.7m-4.4 0h-1.8c-.4 0-.7-.3-.7-.7 0-.4.3-.7.7-.7h1.8c.4 0 .7.3.7.7 0 .4-.3.7-.7.7m-4.4 0h-1.8c-.4 0-.7-.3-.7-.7 0-.4.3-.7.7-.7h1.8c.4 0 .7.3.7.7 0 .4-.3.7-.7.7m-4.4 0h-1.8c-.4 0-.7-.3-.7-.7 0-.4.3-.7.7-.7h1.8c.4 0 .7.3.7.7 0 .4-.3.7-.7.7m-4.4 0h-1.8c-.4 0-.7-.3-.7-.7 0-.4.3-.7.7-.7h1.8c.4 0 .7.3.7.7 0 .4-.3.7-.7.7m-4.4 0h-1.8c-.4 0-.7-.3-.7-.7 0-.4.3-.7.7-.7h1.8c.4 0 .7.3.7.7 0 .4-.3.7-.7.7m-4.4 0h-1.8c-.4 0-.7-.3-.7-.7 0-.4.3-.7.7-.7h1.8c.4 0 .7.3.7.7 0 .4-.3.7-.7.7m-4.4 0h-1.8c-.4 0-.7-.3-.7-.7 0-.4.3-.7.7-.7h1.8c.4 0 .7.3.7.7 0 .4-.3.7-.7.7m-4.4 0h-1.8c-.4 0-.7-.3-.7-.7 0-.4.3-.7.7-.7h1.8c.4 0 .7.3.7.7 0 .4-.3.7-.7.7m-4.4 0h-1.8c-.4 0-.7-.3-.7-.7 0-.4.3-.7.7-.7h1.8c.4 0 .7.3.7.7 0 .4-.3.7-.7.7m-4.4 0h-1.8c-.4 0-.7-.3-.7-.7 0-.4.3-.7.7-.7h1.8c.4 0 .7.3.7.7 0 .4-.3.7-.7.7m-4.4 0h-1.8c-.4 0-.7-.3-.7-.7 0-.4.3-.7.7-.7h1.8c.4 0 .7.3.7.7 0 .4-.4.7-.7.7m-4.5 0H30c-.4 0-.7-.3-.7-.7 0-.4.3-.7.7-.7h1.8c.4 0 .7.3.7.7.1.4-.3.7-.7.7m-4.4 0h-1.8c-.4 0-.7-.3-.7-.7 0-.4.3-.7.7-.7h1.8c.4 0 .7.3.7.7.1.4-.3.7-.7.7m-4.4 0h-1.8c-.4 0-.7-.3-.7-.7 0-.4.3-.7.7-.7H23c.4 0 .7.3.7.7.1.4-.3.7-.7.7m-4.4 0h-1.8c-.4 0-.7-.3-.7-.7 0-.4.3-.7.7-.7h1.8c.4 0 .7.3.7.7.1.4-.3.7-.7.7M97 57.9h-.9c-.4 0-.7-.3-.7-.7 0-.4.3-.7.7-.7h.9c.4 0 .7.3.7.7 0 .4-.3.7-.7.7m-82.8 0h-1.6v-1.6c0-.4.3-.7.7-.7.4 0 .7.3.7.7v.1h.2c.4 0 .7.3.7.7.1.5-.3.8-.7.8m-.8-55.6c-.4 0-.7-.3-.7-.7V.7c-.1-.4.3-.7.7-.7.4 0 .7.3.7.7v.9c0 .4-.3.7-.7.7"/><path class="st1" d="M51.8 60.1c-.4 0-.7-.3-.7-.7v-1.8c0-.4.3-.7.7-.7.4 0 .7.3.7.7v1.8c0 .4-.4.7-.7.7m0-4.4c-.4 0-.7-.3-.7-.7v-1.8c0-.4.3-.7.7-.7.4 0 .7.3.7.7V55c0 .4-.4.7-.7.7m0-4.4c-.4 0-.7-.3-.7-.7v-1.8c0-.4.3-.7.7-.7.4 0 .7.3.7.7v1.8c0 .4-.4.7-.7.7m0-4.4c-.4 0-.7-.3-.7-.7v-1.8c0-.4.3-.7.7-.7.4 0 .7.3.7.7v1.8c0 .4-.4.7-.7.7m0-4.4c-.4 0-.7-.3-.7-.7V40c0-.4.3-.7.7-.7.4 0 .7.3.7.7v1.8c0 .4-.4.7-.7.7m0-4.4c-.4 0-.7-.3-.7-.7v-1.8c0-.4.3-.7.7-.7.4 0 .7.3.7.7v1.8c0 .4-.4.7-.7.7m0-4.4c-.4 0-.7-.3-.7-.7v-1.8c0-.4.3-.7.7-.7.4 0 .7.3.7.7V33c0 .4-.4.7-.7.7m0-4.4c-.4 0-.7-.3-.7-.7v-1.8c0-.4.3-.7.7-.7.4 0 .7.3.7.7v1.8c0 .4-.4.7-.7.7m0-4.4c-.4 0-.7-.3-.7-.7v-1.8c0-.4.3-.7.7-.7.4 0 .7.3.7.7v1.8c0 .4-.4.7-.7.7m0-4.4c-.4 0-.7-.3-.7-.7V18c0-.4.3-.7.7-.7.4 0 .7.3.7.7v1.8c0 .4-.4.7-.7.7m0-4.4c-.4 0-.7-.3-.7-.7v-1.8c0-.4.3-.7.7-.7.4 0 .7.3.7.7v1.8c0 .4-.4.7-.7.7M36.7 18.8H19.8c-.4 0-.7-.3-.7-.7 0-.4.3-.7.7-.7h16.9c.4 0 .7.3.7.7 0 .4-.3.7-.7.7M36.7 23.3H19.8c-.4 0-.7-.3-.7-.7 0-.4.3-.7.7-.7h16.9c.4 0 .7.3.7.7 0 .4-.3.7-.7.7M36.7 27.9H19.8c-.4 0-.7-.3-.7-.7 0-.4.3-.7.7-.7h16.9c.4 0 .7.3.7.7 0 .4-.3.7-.7.7M36.7 32.5H19.8c-.4 0-.7-.3-.7-.7 0-.4.3-.7.7-.7h16.9c.4 0 .7.3.7.7 0 .4-.3.7-.7.7M36.7 37H19.8c-.4 0-.7-.3-.7-.7 0-.4.3-.7.7-.7h16.9c.4 0 .7.3.7.7 0 .4-.3.7-.7.7"/></g></svg>