<svg version="1.1" id="Слой_1" xmlns="http://www.w3.org/2000/svg" x="0" y="0" width="54" height="68.9" xml:space="preserve"><style>.st1{fill:#fff}</style><g opacity=".5"><path class="st1" d="M32.4 40.3c-.3 0-.5-.2-.7-.4-.2-.4 0-.8.4-.9.5-.2 1-.5 1.5-.9.3-.2.8-.2 1 .2.2.3.2.8-.2 1-.5.4-1.1.7-1.8 1 0-.1-.1 0-.2 0m3.5-2.9c-.1 0-.3 0-.4-.1-.3-.2-.4-.7-.2-1l.9-1.5c.2-.4.6-.5.9-.4.4.2.5.6.4.9-.3.6-.6 1.2-1 1.8-.1.2-.3.3-.6.3M36.9 28.5c-.3 0-.5-.2-.7-.4-.2-.5-.5-1-.9-1.5-.2-.3-.2-.8.2-1 .3-.2.8-.2 1 .2.4.5.7 1.1 1 1.8.2.4 0 .8-.4.9h-.2M34 24.9c-.1 0-.3 0-.4-.1l-1.5-.9c-.4-.2-.5-.6-.4-.9.2-.4.6-.5.9-.4.6.3 1.2.6 1.8 1 .3.2.4.7.2 1-.2.2-.4.3-.6.3M20.6 28.5c-.1 0-.2 0-.3-.1-.4-.2-.5-.6-.4-.9.3-.6.6-1.2 1-1.8.2-.3.7-.4 1-.2.3.2.4.7.2 1l-.9 1.5c0 .4-.3.5-.6.5m2.9-3.6c-.2 0-.4-.1-.6-.3-.2-.3-.2-.8.2-1 .5-.4 1.1-.7 1.8-1 .4-.2.8 0 .9.4.2.4 0 .8-.4.9-.5.2-1 .5-1.5.9-.1.1-.2.1-.4.1M25.1 40.3c-.1 0-.2 0-.3-.1-.6-.3-1.2-.6-1.8-1-.3-.2-.4-.7-.2-1 .2-.3.7-.4 1-.2l1.5.9c.4.2.5.6.4.9 0 .3-.3.5-.6.5m-3.5-2.9c-.2 0-.4-.1-.6-.3-.4-.5-.7-1.1-1-1.8-.2-.4 0-.8.4-.9.4-.2.8 0 .9.4.2.5.5 1 .9 1.5.2.3.2.8-.2 1-.1 0-.3.1-.4.1M28.8 41c-.3 0-.7 0-1-.1-.4 0-.7-.4-.6-.8 0-.4.4-.7.8-.6.6.1 1.2.1 1.7 0 .4 0 .7.2.8.6 0 .4-.2.7-.6.8-.5.1-.8.1-1.1.1m-8.9-7.9c-.4 0-.7-.3-.7-.6s-.1-.7-.1-1c0-.3 0-.7.1-1 0-.4.4-.7.8-.6.4 0 .7.4.6.8v1.8c.1.2-.2.5-.7.6.1 0 0 0 0 0m17.7 0c-.5 0-.8-.4-.7-.8v-.9-.9c0-.4.2-.7.6-.8.4 0 .7.2.8.6 0 .3.1.7.1 1 0 .3 0 .7-.1 1 0 .5-.3.8-.7.8m-9.8-9.8c-.4 0-.7-.3-.7-.6 0-.4.2-.7.6-.8.7-.1 1.4-.1 2 0 .4 0 .7.4.6.8 0 .4-.4.7-.8.6-.5-.1-1-.1-1.7 0 .1 0 0 0 0 0M28.8 58.9c-1.6 0-2.9-1.3-2.9-2.9 0-1.6 1.3-2.9 2.9-2.9 1.6 0 2.9 1.3 2.9 2.9-.1 1.7-1.4 2.9-2.9 2.9m0-4.3c-.8 0-1.4.6-1.4 1.4 0 .8.6 1.4 1.4 1.4.8 0 1.4-.6 1.4-1.4 0-.7-.7-1.4-1.4-1.4M45.1 65.4c-.4 0-.7-.3-.7-.7v-1.8c0-.4.3-.7.7-.7.4 0 .7.3.7.7v1.8c0 .3-.4.7-.7.7m0-4.5c-.4 0-.7-.3-.7-.7v-1.8c0-.4.3-.7.7-.7.4 0 .7.3.7.7v1.8c0 .4-.4.7-.7.7m0-4.4c-.4 0-.7-.3-.7-.7V54c0-.4.3-.7.7-.7.4 0 .7.3.7.7v1.8c0 .4-.4.7-.7.7m0-4.4c-.4 0-.7-.3-.7-.7v-1.8c0-.4.3-.7.7-.7.4 0 .7.3.7.7v1.8c0 .4-.4.7-.7.7m0-4.4c-.4 0-.7-.3-.7-.7v-1.8c0-.4.3-.7.7-.7.4 0 .7.3.7.7V47c0 .3-.4.7-.7.7m0-4.5c-.4 0-.7-.3-.7-.7v-1.8c0-.4.3-.7.7-.7.4 0 .7.3.7.7v1.8c0 .4-.4.7-.7.7m0-4.4c-.4 0-.7-.3-.7-.7v-1.8c0-.4.3-.7.7-.7.4 0 .7.3.7.7v1.8c0 .4-.4.7-.7.7m0-4.4c-.4 0-.7-.3-.7-.7v-1.8c0-.4.3-.7.7-.7.4 0 .7.3.7.7v1.8c0 .4-.4.7-.7.7m0-4.4c-.4 0-.7-.3-.7-.7v-1.8c0-.4.3-.7.7-.7.4 0 .7.3.7.7v1.8c0 .3-.4.7-.7.7m0-4.5c-.4 0-.7-.3-.7-.7V23c0-.4.3-.7.7-.7.4 0 .7.3.7.7v1.8c0 .4-.4.7-.7.7m0-4.4c-.4 0-.7-.3-.7-.7v-1.8c0-.4.3-.7.7-.7.4 0 .7.3.7.7v1.8c0 .4-.4.7-.7.7m0-4.4c-.4 0-.7-.3-.7-.7v-1.8c0-.4.3-.7.7-.7.4 0 .7.3.7.7V16c0 .4-.4.7-.7.7m0-4.4c-.4 0-.7-.3-.7-.7V9.8c0-.4.3-.7.7-.7.4 0 .7.3.7.7v1.8c0 .3-.4.7-.7.7M41.5 7h-1.8c-.4 0-.7-.4-.7-.7 0-.4.3-.7.7-.7h1.8c.4 0 .7.3.7.7 0 .3-.3.7-.7.7m-4.4 0h-1.8c-.4 0-.7-.3-.7-.7 0-.4.3-.7.7-.7h1.8c.4 0 .7.3.7.7 0 .3-.3.7-.7.7m-4.5 0h-1.8c-.4 0-.7-.3-.7-.7 0-.4.3-.7.7-.7h1.8c.4 0 .7.3.7.7.1.3-.3.7-.7.7m-4.4 0h-1.8c-.4 0-.7-.3-.7-.7 0-.4.3-.7.7-.7h1.8c.4 0 .7.3.7.7 0 .3-.3.7-.7.7m-4.4 0H22c-.4 0-.7-.3-.7-.7 0-.4.3-.7.7-.7h1.8c.4 0 .7.3.7.7 0 .3-.3.7-.7.7m-4.5 0h-1.8c-.4 0-.7-.3-.7-.7 0-.4.3-.7.7-.7h1.8c.4 0 .7.3.7.7.1.3-.3.7-.7.7m-4.4 0h-1.8c-.4 0-.7-.3-.7-.7 0-.4.3-.7.7-.7h1.8c.4 0 .7.3.7.7 0 .3-.3.7-.7.7m-4.4 0H8.7c-.4 0-.7-.4-.7-.7 0-.4.3-.7.7-.7h1.8c.4 0 .7.3.7.7 0 .3-.3.7-.7.7M6 7H4.3c-.4 0-.8-.4-.8-.7 0-.4.3-.7.7-.7H6c.4 0 .7.3.7.7 0 .3-.3.7-.7.7M45.1 68.9c-.4 0-.7-.3-.7-.7v-.9c0-.4.3-.7.7-.7.4 0 .7.3.7.7v.9c0 .4-.4.7-.7.7m0-61.1c-.4 0-.7-.3-.7-.7V7h-.2c-.4 0-.7-.3-.7-.7 0-.4.3-.7.7-.7h1.6v1.6c0 .3-.4.6-.7.6M1.6 7H.7C.3 7 0 6.6 0 6.2s.3-.7.7-.7h.9c.4 0 .7.3.7.7 0 .4-.3.8-.7.8"/><path class="st1" d="M45.1 51.1h-1.7c-.4 0-.7-.3-.7-.7 0-.4.3-.7.7-.7h1.7c.4 0 .7.3.7.7 0 .4-.4.7-.7.7m-4.4 0H39c-.4 0-.7-.3-.7-.7 0-.4.3-.7.7-.7h1.7c.4 0 .7.3.7.7 0 .4-.3.7-.7.7m-4.4 0h-1.7c-.4 0-.7-.3-.7-.7 0-.4.3-.7.7-.7h1.7c.4 0 .7.3.7.7 0 .4-.3.7-.7.7m-4.4 0h-1.7c-.4 0-.7-.3-.7-.7 0-.4.3-.7.7-.7h1.7c.4 0 .7.3.7.7 0 .4-.3.7-.7.7m-4.4 0h-1.7c-.4 0-.7-.3-.7-.7 0-.4.3-.7.7-.7h1.7c.4 0 .7.3.7.7.1.4-.3.7-.7.7m-4.3 0h-1.7c-.4 0-.7-.3-.7-.7 0-.4.3-.7.7-.7h1.7c.4 0 .7.3.7.7 0 .4-.3.7-.7.7m-4.4 0H17c-.4 0-.7-.3-.7-.7 0-.4.3-.7.7-.7h1.7c.4 0 .7.3.7.7.1.4-.2.7-.6.7m-4.4 0h-1.7c-.4 0-.7-.3-.7-.7 0-.4.3-.7.7-.7h1.7c.4 0 .7.3.7.7 0 .4-.3.7-.7.7M45.1 10.6h-1.7c-.4 0-.7-.3-.7-.7 0-.4.3-.7.7-.7h1.7c.4 0 .7.3.7.7 0 .4-.4.7-.7.7m-4.4 0H39c-.4 0-.7-.3-.7-.7 0-.4.3-.7.7-.7h1.7c.4 0 .7.3.7.7 0 .4-.3.7-.7.7m-4.4 0h-1.7c-.4 0-.7-.3-.7-.7 0-.4.3-.7.7-.7h1.7c.4 0 .7.3.7.7 0 .4-.3.7-.7.7m-4.4 0h-1.7c-.4 0-.7-.3-.7-.7 0-.4.3-.7.7-.7h1.7c.4 0 .7.3.7.7 0 .4-.3.7-.7.7m-4.4 0h-1.7c-.4 0-.7-.3-.7-.7 0-.4.3-.7.7-.7h1.7c.4 0 .7.3.7.7.1.4-.3.7-.7.7m-4.3 0h-1.7c-.4 0-.7-.3-.7-.7 0-.4.3-.7.7-.7h1.7c.4 0 .7.3.7.7 0 .4-.3.7-.7.7m-4.4 0H17c-.4 0-.7-.3-.7-.7 0-.4.3-.7.7-.7h1.7c.4 0 .7.3.7.7.1.4-.2.7-.6.7m-4.4 0h-1.7c-.4 0-.7-.3-.7-.7 0-.4.3-.7.7-.7h1.7c.4 0 .7.3.7.7 0 .4-.3.7-.7.7"/><path class="st1" d="M12.5 59.2c-.4 0-.7-.3-.7-.7v-1.7c0-.4.3-.7.7-.7.4 0 .7.3.7.7v1.7c0 .4-.4.7-.7.7m0-4.4c-.4 0-.7-.3-.7-.7v-1.7c0-.4.3-.7.7-.7.4 0 .7.3.7.7v1.7c0 .4-.4.7-.7.7m0-4.4c-.4 0-.7-.3-.7-.7V48c0-.4.3-.7.7-.7.4 0 .7.3.7.7v1.7c0 .4-.4.7-.7.7m0-4.3c-.4 0-.7-.3-.7-.7v-1.7c0-.4.3-.7.7-.7.4 0 .7.3.7.7v1.7c0 .3-.4.7-.7.7m0-4.4c-.4 0-.7-.3-.7-.7v-1.7c0-.4.3-.7.7-.7.4 0 .7.3.7.7V41c0 .4-.4.7-.7.7m0-4.4c-.4 0-.7-.3-.7-.7v-1.7c0-.4.3-.7.7-.7.4 0 .7.3.7.7v1.7c0 .4-.4.7-.7.7m0-4.4c-.4 0-.7-.3-.7-.7v-1.7c0-.4.3-.7.7-.7.4 0 .7.3.7.7v1.7c0 .4-.4.7-.7.7m0-4.3c-.4 0-.7-.3-.7-.7v-1.7c0-.4.3-.7.7-.7.4 0 .7.3.7.7v1.7c0 .3-.4.7-.7.7m0-4.4c-.4 0-.7-.3-.7-.7v-1.7c0-.4.3-.7.7-.7.4 0 .7.3.7.7v1.7c0 .4-.4.7-.7.7m0-4.4c-.4 0-.7-.3-.7-.7v-1.7c0-.4.3-.7.7-.7.4 0 .7.3.7.7v1.7c0 .4-.4.7-.7.7m0-4.4c-.4 0-.7-.3-.7-.7V13c0-.4.3-.7.7-.7.4 0 .7.3.7.7v1.7c0 .4-.4.7-.7.7m0-4.3c-.4 0-.7-.3-.7-.7V8.6c0-.4.3-.7.7-.7.4 0 .7.3.7.7v1.7c0 .4-.4.8-.7.8m0-4.4c-.4 0-.7-.3-.7-.7V4.2c0-.4.3-.7.7-.7.4 0 .7.3.7.7V6c0 .4-.4.7-.7.7M53.2 62.7h-1.8c-.4 0-.7-.3-.7-.7 0-.4.3-.7.7-.7h1.8c.4 0 .7.3.7.7.1.4-.3.7-.7.7m-4.4 0H47c-.4 0-.7-.3-.7-.7 0-.4.3-.7.7-.7h1.8c.4 0 .7.3.7.7 0 .4-.3.7-.7.7m-4.4 0h-1.8c-.4 0-.7-.3-.7-.7 0-.4.3-.7.7-.7h1.8c.4 0 .7.3.7.7 0 .4-.3.7-.7.7m-4.5 0h-1.8c-.4 0-.7-.3-.7-.7 0-.4.3-.7.7-.7h1.8c.4 0 .7.3.7.7.1.4-.3.7-.7.7m-4.4 0h-1.8c-.4 0-.7-.3-.7-.7 0-.4.3-.7.7-.7h1.8c.4 0 .7.3.7.7 0 .4-.3.7-.7.7m-4.4 0h-1.8c-.4 0-.7-.3-.7-.7 0-.4.3-.7.7-.7h1.8c.4 0 .7.3.7.7 0 .4-.3.7-.7.7m-4.5 0h-1.8c-.4 0-.7-.3-.7-.7 0-.4.3-.7.7-.7h1.8c.4 0 .7.3.7.7.1.4-.3.7-.7.7m-4.4 0h-1.8c-.4 0-.7-.3-.7-.7 0-.4.3-.7.7-.7h1.8c.4 0 .7.3.7.7 0 .4-.3.7-.7.7m-4.4 0H16c-.4 0-.7-.3-.7-.7 0-.4.3-.7.7-.7h1.8c.4 0 .7.3.7.7 0 .4-.3.7-.7.7M13.3 62.7h-1.6v-1.6c0-.4.3-.7.7-.7.4 0 .7.3.7.7v.2h.2c.4 0 .7.3.7.7.1.4-.3.7-.7.7m-.8-60.4c-.4 0-.7-.3-.7-.7V.7c0-.4.3-.7.7-.7.4 0 .7.3.7.7v.9c0 .4-.4.7-.7.7"/></g></svg>