<svg version="1.1" id="Слой_1" xmlns="http://www.w3.org/2000/svg" x="0" y="0" width="84.7" height="59.1" xml:space="preserve"><style>.st1{fill:#fff}</style><g opacity=".5"><path class="st1" d="M73 52.5c-.4 0-.7-.3-.7-.7v-1.7c0-.4.3-.7.7-.7.4 0 .7.3.7.7v1.7c0 .4-.3.7-.7.7m0-4.3c-.4 0-.7-.3-.7-.7v-1.7c0-.4.3-.7.7-.7.4 0 .7.3.7.7v1.7c0 .4-.3.7-.7.7m0-4.3c-.4 0-.7-.3-.7-.7v-1.7c0-.4.3-.7.7-.7.4 0 .7.3.7.7v1.7c0 .4-.3.7-.7.7m0-4.3c-.4 0-.7-.3-.7-.7v-1.7c0-.4.3-.7.7-.7.4 0 .7.3.7.7v1.7c0 .4-.3.7-.7.7m0-4.3c-.4 0-.7-.3-.7-.7v-1.7c0-.4.3-.7.7-.7.4 0 .7.3.7.7v1.7c0 .4-.3.7-.7.7m0-4.3c-.4 0-.7-.3-.7-.7v-1.7c0-.4.3-.7.7-.7.4 0 .7.3.7.7v1.7c0 .4-.3.7-.7.7m0-4.3c-.4 0-.7-.3-.7-.7v-1.7c0-.4.3-.7.7-.7.4 0 .7.3.7.7V26c0 .4-.3.7-.7.7m0-4.3c-.4 0-.7-.3-.7-.7V20c0-.4.3-.7.7-.7.4 0 .7.3.7.7v1.7c0 .4-.3.7-.7.7m0-4.3c-.4 0-.7-.3-.7-.7v-1.7c0-.4.3-.7.7-.7.4 0 .7.3.7.7v1.7c0 .4-.3.7-.7.7M69.5 11.7h-.3l-1.8-.7c-.4-.1-.6-.6-.4-.9.1-.4.6-.6.9-.4l1.8.7c.4.1.6.6.4.9 0 .2-.3.4-.6.4M65.1 10h-.3L63 9.3c-.4-.1-.6-.6-.4-.9.2-.4.6-.6 1-.4l1.8.7c.4.1.6.6.4.9-.1.2-.4.4-.7.4m-4.3-1.6h-.3l-1.8-.7c-.4-.1-.6-.6-.4-.9.1-.4.6-.6.9-.4L61 7c.4.1.6.6.4.9-.1.3-.4.5-.6.5m-4.4-1.7h-.3L54.4 6c-.4-.1-.6-.6-.4-.9.1-.4.6-.6.9-.4l1.8.7c.3.1.5.5.3.9-.1.3-.3.4-.6.4M52 5.1h-.3L50 4.4c-.4-.1-.6-.6-.4-.9.1-.4.5-.6.9-.4l1.8.7c.4.1.6.6.4.9-.1.2-.4.4-.7.4m-4.4-1.7h-.3l-1.8-.7c-.4-.1-.6-.6-.4-.9.1-.4.5-.6.9-.4l1.8.7c.4.1.6.6.4.9 0 .3-.3.4-.6.4M.7 14.6c-.3 0-.6-.2-.7-.5-.1-.4.1-.8.5-.9l1.6-.5c.4-.1.8.1.9.5.1.4-.1.8-.5.9l-1.6.5H.7m4.1-1.3c-.3 0-.6-.2-.7-.5-.1-.4.1-.8.5-.9l1.6-.5c.4-.1.8.1.9.5.1.4-.1.8-.5.9l-1.6.5h-.2m4.1-1.2c-.3 0-.6-.2-.7-.5-.1-.4.1-.8.5-.9l1.6-.5c.4-.1.8.1.9.5.1.4-.1.8-.5.9l-1.6.4c-.1 0-.1.1-.2.1m4.1-1.3c-.3 0-.6-.2-.7-.5-.1-.4.1-.8.5-.9l1.6-.5c.4-.1.8.1.9.5.1.4-.1.8-.5.9l-1.6.5H13m4-1.3c-.3 0-.6-.2-.7-.5-.1-.4.1-.8.5-.9l1.6-.5c.4-.1.8.1.9.5.1.4-.1.8-.5.9l-1.6.5H17m4.1-1.3c-.3 0-.6-.2-.7-.5-.1-.4.1-.8.5-.9l1.6-.5c.4-.1.8.1.9.5.1.4-.1.8-.5.9l-1.6.5h-.2m4.1-1.3c-.3 0-.6-.2-.7-.5-.1-.4.1-.8.5-.9l1.6-.5c.4-.1.8.1.9.5.1.4-.1.8-.5.9l-1.6.5h-.2m4.1-1.3c-.3 0-.6-.2-.7-.5-.1-.4.1-.8.5-.9l1.6-.5c.4-.1.8.1.9.5.1.4-.1.8-.5.9l-1.6.5h-.2m4.1-1.3c-.3 0-.6-.2-.7-.5-.1-.4.1-.8.5-.9l1.6-.5c.4-.1.8.1.9.5.1.4-.1.8-.5.9l-1.6.5h-.2M37.5 3c-.3 0-.6-.2-.7-.5-.1-.4.1-.8.5-.9l1.6-.5c.4-.1.8.1.9.5.1.4-.1.8-.5.9l-1.6.5h-.2M73 55.9c-.4 0-.7-.3-.7-.7v-.9c0-.4.3-.7.7-.7.4 0 .7.3.7.7v.9c0 .4-.3.7-.7.7m0-42.1c-.4 0-.7-.3-.7-.7v-.4l-.4-.2c-.4-.1-.6-.6-.4-.9.1-.4.6-.6.9-.4l1.3.5V13c0 .5-.3.8-.7.8m-29.8-12h-.3l-.7-.2-.6.2c-.4.1-.8-.1-.9-.5-.1-.4.1-.8.5-.9l1-.3 1.1.4c.4.1.6.6.4.9.1.2-.2.4-.5.4"/><path class="st1" d="M11.7 44.1c-.4 0-.7-.3-.7-.7v-1.7c0-.4.3-.7.7-.7.4 0 .7.3.7.7v1.7c0 .4-.3.7-.7.7m0-4.3c-.4 0-.7-.3-.7-.7v-1.7c0-.4.3-.7.7-.7.4 0 .7.3.7.7v1.7c0 .4-.3.7-.7.7m0-4.3c-.4 0-.7-.3-.7-.7v-1.7c0-.4.3-.7.7-.7.4 0 .7.3.7.7v1.7c0 .4-.3.7-.7.7m0-4.3c-.4 0-.7-.3-.7-.7v-1.7c0-.4.3-.7.7-.7.4 0 .7.3.7.7v1.7c0 .4-.3.7-.7.7m0-4.3c-.4 0-.7-.3-.7-.7v-1.7c0-.4.3-.7.7-.7.4 0 .7.3.7.7v1.7c0 .4-.3.7-.7.7m0-4.3c-.4 0-.7-.3-.7-.7v-1.7c0-.4.3-.7.7-.7.4 0 .7.3.7.7v1.7c0 .4-.3.7-.7.7m0-4.3c-.4 0-.7-.3-.7-.7v-1.7c0-.4.3-.7.7-.7.4 0 .7.3.7.7v1.7c0 .4-.3.7-.7.7m0-4.3c-.4 0-.7-.3-.7-.7v-1.7c0-.4.3-.7.7-.7.4 0 .7.3.7.7v1.7c0 .4-.3.7-.7.7m0-4.3c-.4 0-.7-.3-.7-.7V7.3c0-.4.3-.7.7-.7.4 0 .7.3.7.7V9c0 .4-.3.7-.7.7M38.9 57.7h-.3l-1.7-.7c-.4-.1-.6-.6-.4-.9.1-.4.6-.6.9-.4l1.8.7c.4.1.6.6.4.9-.2.3-.4.4-.7.4m-4.4-1.6h-.3l-1.8-.7c-.4-.1-.6-.6-.4-.9.1-.4.6-.6.9-.4l1.8.7c.4.1.6.6.4.9 0 .2-.3.4-.6.4m-4.4-1.7h-.3l-1.8-.7c-.4-.1-.6-.6-.4-.9.1-.4.5-.6.9-.4l1.8.7c.4.1.6.6.4.9 0 .3-.3.4-.6.4m-4.4-1.6h-.3l-1.8-.7c-.4-.1-.6-.6-.4-.9.1-.4.6-.6.9-.4l1.8.7c.4.1.6.6.4.9 0 .2-.3.4-.6.4m-4.3-1.6h-.3l-1.8-.7c-.4-.1-.6-.6-.4-.9.1-.4.6-.6.9-.4l1.8.7c.4.1.6.6.4.9-.1.2-.3.4-.6.4M17 49.5h-.3l-1.7-.7c-.4-.1-.6-.6-.4-.9.1-.4.5-.6.9-.4l1.8.7c.4.1.6.6.4.9-.1.2-.4.4-.7.4M45.6 58c-.3 0-.6-.2-.7-.5-.1-.4.1-.8.5-.9l1.6-.5c.4-.1.8.1.9.5.1.4-.1.8-.5.9l-1.5.5h-.3m4.1-1.3c-.3 0-.6-.2-.7-.5-.1-.4.1-.8.5-.9l1.6-.5c.4-.1.8.1.9.5.1.4-.1.8-.5.9l-1.6.5h-.2m4.1-1.3c-.3 0-.6-.2-.7-.5-.1-.4.1-.8.5-.9l1.6-.5c.4-.1.8.1.9.5.1.4-.1.8-.5.9l-1.6.5h-.2m4.1-1.3c-.3 0-.6-.2-.7-.5-.1-.4.1-.8.5-.9l1.6-.5c.4-.1.8.1.9.5.1.4-.1.8-.5.9l-1.6.5h-.2m4.1-1.3c-.3 0-.6-.2-.7-.5-.1-.4.1-.8.5-.9l1.6-.5c.4-.1.8.1.9.5.1.4-.1.8-.5.9l-1.6.5H62m4.1-1.2c-.3 0-.6-.2-.7-.5-.1-.4.1-.8.5-.9l1.6-.5c.4-.1.8.1.9.5.1.4-.1.8-.5.9l-1.6.5c-.1-.1-.2 0-.2 0m4-1.3c-.3 0-.6-.2-.7-.5-.1-.4.1-.8.5-.9l1.6-.5c.4-.1.8.1.9.5.1.4-.1.8-.5.9l-1.6.5h-.2m4.1-1.3c-.3 0-.6-.2-.7-.5-.1-.4.1-.8.5-.9l1.6-.5c.4-.1.8.1.9.5.1.4-.1.8-.5.9l-1.6.5h-.2m4.1-1.3c-.3 0-.6-.2-.7-.5-.1-.4.1-.8.5-.9l1.6-.5c.4-.1.8.1.9.5.1.4-.1.8-.5.9l-1.6.5h-.2m4.1-1.3c-.3 0-.6-.2-.7-.5-.1-.4.1-.8.5-.9l1.6-.5c.4-.1.8.1.9.5.1.4-.1.8-.5.9l-1.6.5h-.2M42.4 59.1l-1.1-.4c-.4-.1-.6-.6-.4-.9.1-.4.6-.6.9-.4l.7.2.6-.2c.4-.1.8.1.9.5.1.4-.1.8-.5.9l-1.1.3zM12.6 47.9h-.3l-1.3-.6V46c0-.4.3-.7.7-.7.4 0 .7.3.7.7v.4l.4.2c.4.1.6.6.4.9 0 .2-.3.4-.6.4m-.9-42.5c-.4 0-.7-.3-.7-.7v-.8c0-.4.3-.7.7-.7.4 0 .7.3.7.7v.9c0 .3-.3.6-.7.6"/><path class="st1" d="M42.6 58.2c-.4 0-.7-.3-.7-.7v-1.8c0-.4.3-.7.7-.7.4 0 .7.3.7.7v1.8c0 .3-.4.7-.7.7m0-4.6c-.4 0-.7-.3-.7-.7v-1.8c0-.4.3-.7.7-.7.4 0 .7.3.7.7v1.8c0 .4-.4.7-.7.7m0-4.5c-.4 0-.7-.3-.7-.7v-1.8c0-.4.3-.7.7-.7.4 0 .7.3.7.7v1.8c0 .4-.4.7-.7.7m0-4.6c-.4 0-.7-.3-.7-.7V42c0-.4.3-.7.7-.7.4 0 .7.3.7.7v1.8c0 .4-.4.7-.7.7m0-4.5c-.4 0-.7-.3-.7-.7v-1.8c0-.4.3-.7.7-.7.4 0 .7.3.7.7v1.8c0 .4-.4.7-.7.7m0-4.5c-.4 0-.7-.3-.7-.7V33c0-.4.3-.7.7-.7.4 0 .7.3.7.7v1.8c0 .3-.4.7-.7.7m0-4.6c-.4 0-.7-.3-.7-.7v-1.8c0-.4.3-.7.7-.7.4 0 .7.3.7.7v1.8c0 .4-.4.7-.7.7m0-4.5c-.4 0-.7-.3-.7-.7v-1.8c0-.4.3-.7.7-.7.4 0 .7.3.7.7v1.8c0 .4-.4.7-.7.7m0-4.6c-.4 0-.7-.3-.7-.7v-1.8c0-.4.3-.7.7-.7.4 0 .7.3.7.7v1.8c0 .4-.4.7-.7.7m0-4.5c-.4 0-.7-.3-.7-.7v-1.8c0-.4.3-.7.7-.7.4 0 .7.3.7.7v1.8c0 .4-.4.7-.7.7m0-4.5c-.4 0-.7-.3-.7-.7v-1.8c0-.4.3-.7.7-.7.4 0 .7.3.7.7v1.8c0 .3-.4.7-.7.7m0-4.6c-.4 0-.7-.3-.7-.7V5.7c0-.4.3-.7.7-.7.4 0 .7.3.7.7v1.8c0 .4-.4.7-.7.7m0-4.5c-.4 0-.7-.3-.7-.7V1.1c0-.4.3-.7.7-.7.4 0 .7.3.7.7V3c0 .4-.4.7-.7.7M30.4 38.7c-.3 0-.5-.1-.6-.4-.2-.4 0-.8.3-1 .5-.3 1-.6 1.5-1 .3-.3.8-.2 1 .1s.2.8-.1 1c-.6.5-1.2.9-1.8 1.2-.1.1-.2.1-.3.1m3.6-3.2c-.1 0-.3 0-.4-.1-.3-.2-.4-.7-.2-1 .3-.5.6-1.1.9-1.6.2-.4.6-.5.9-.4.4.2.5.6.4.9-.3.6-.6 1.3-1 1.9-.2.2-.4.3-.6.3M34.9 26.3c-.3 0-.5-.2-.7-.4-.2-.6-.5-1.1-.9-1.6-.2-.3-.1-.8.2-1 .3-.2.8-.1 1 .2.4.6.7 1.2 1 1.8.2.4 0 .8-.4.9 0 .1-.1.1-.2.1M32 22.4c-.2 0-.3-.1-.5-.2-.5-.4-1-.7-1.5-1-.4-.2-.5-.6-.3-1s.6-.5 1-.3c.6.3 1.2.7 1.8 1.2.3.3.3.7.1 1-.2.3-.4.3-.6.3M19.5 26.5h-.2c-.4-.1-.6-.5-.4-.9.2-.6.5-1.2.8-1.7.2-.3.6-.5 1-.3.3.2.5.6.3 1-.3.5-.5 1-.7 1.5-.2.2-.5.4-.8.4m2.4-3.6c-.2 0-.4-.1-.5-.2-.3-.3-.2-.7.1-1 .5-.4 1-.8 1.5-1.1.3-.2.8-.1 1 .3.2.3.1.8-.3 1-.5.3-.9.6-1.3.9-.2 0-.3.1-.5.1M23.3 38.2c-.1 0-.2 0-.4-.1-.6-.3-1.1-.7-1.6-1.1-.3-.3-.3-.7-.1-1 .3-.3.7-.3 1-.1.4.4.8.7 1.3.9.3.2.5.6.3 1 0 .3-.2.4-.5.4m-3.1-3.1c-.2 0-.5-.1-.6-.4-.3-.5-.6-1.1-.8-1.7-.1-.4.1-.8.4-.9.4-.1.8.1.9.4.2.5.4 1 .7 1.5.2.3.1.8-.3 1 0 .1-.2.1-.3.1M27.5 39.4c-.3 0-.7 0-1-.1-.3 0-.6-.1-.9-.2-.4-.1-.6-.5-.5-.9.1-.4.5-.6.9-.5.3.1.5.1.8.2.3 0 .6.1.9.1.4 0 .7.3.7.7 0 .4-.3.7-.7.7h-.2m8.1-8.4c-.5 0-.8-.4-.7-.8v-.9c0-.3 0-.6-.1-.9 0-.4.2-.7.6-.8.4 0 .7.2.8.6 0 .4.1.7.1 1.1 0 .3 0 .7-.1 1.1.1.3-.2.6-.6.6M19 30.9c-.4 0-.7-.3-.7-.7v-.9-.9c0-.4.4-.7.8-.7s.7.4.7.8v1.6c-.1.4-.4.8-.8.8m6.8-10c-.3 0-.6-.2-.7-.5-.1-.4.1-.8.5-.9.3-.1.6-.1.9-.2.4-.1.7-.1 1.1-.1.4 0 .7.3.7.7 0 .4-.4.7-.7.7-.3 0-.6 0-.8.1-.3 0-.5.1-.8.2-.1-.1-.2 0-.2 0M66.2 23.4h-.1L52 21.1c-.4-.1-.7-.4-.6-.8.1-.4.4-.7.8-.6l14.1 2.2c.4.1.7.4.6.8 0 .4-.3.7-.7.7M66.2 26.7l-14.2-1c-.4 0-.7-.4-.7-.8s.4-.7.8-.7l14.1 1c.4 0 .7.4.7.8s-.3.7-.7.7M66.2 30H52.1c-.4 0-.7-.3-.7-.7 0-.4.3-.7.7-.7h14.1c.4 0 .7.3.7.7 0 .4-.3.7-.7.7M52.1 34.4c-.4 0-.7-.3-.7-.7 0-.4.3-.7.7-.8l14.1-1c.4 0 .7.3.8.7 0 .4-.3.7-.7.8l-14.2 1M52.1 38.9c-.3 0-.7-.3-.7-.6-.1-.4.2-.8.6-.8l14.1-2.2c.4-.1.8.2.8.6.1.4-.2.8-.6.8l-14.1 2.2h-.1"/></g></svg>