<svg version="1.1" id="Слой_1" xmlns="http://www.w3.org/2000/svg" x="0" y="0" width="81.8" height="45.1" xml:space="preserve"><style>.st1{fill:#fff}</style><g opacity=".5"><path class="st1" d="M42.3 38.2c-.3 0-.6-.2-.7-.5-.1-.4.1-.8.5-.9l1.5-.6c.3-.2.8 0 1 .3.2.4 0 .8-.3 1-.5.3-1.1.5-1.7.7h-.3m3.7-2.1c-.2 0-.4-.1-.5-.3-.3-.3-.2-.8.1-1 .4-.3.8-.7 1.1-1.1.3-.3.7-.3 1-.1.3.3.3.7.1 1-.4.5-.8.9-1.3 1.3-.1.2-.3.2-.5.2m2.7-3.3c-.1 0-.2 0-.3-.1-.4-.2-.5-.6-.3-1l.6-1.5c.1-.4.5-.6.9-.5.4.1.6.5.5.9-.2.6-.4 1.1-.7 1.7-.2.3-.5.5-.7.5M49.3 24.4c-.3 0-.6-.2-.7-.5l-.6-1.5c-.2-.4 0-.8.3-1 .4-.2.8 0 1 .3.3.5.5 1.1.7 1.7.1.4-.1.8-.5.9 0 .1-.1.1-.2.1m-2-3.7c-.2 0-.4-.1-.5-.3-.3-.4-.7-.8-1.1-1.1-.3-.3-.3-.7-.1-1 .3-.3.7-.3 1-.1.5.4.9.8 1.3 1.3.3.3.2.8-.1 1-.2.1-.4.2-.5.2M43.9 18c-.1 0-.2 0-.3-.1l-1.5-.6c-.4-.1-.6-.5-.5-.9.1-.4.5-.6.9-.5.6.2 1.1.4 1.7.7.4.2.5.6.3 1-.1.3-.3.4-.6.4M28.5 24.4h-.2c-.4-.1-.6-.5-.5-.9.2-.6.4-1.1.7-1.7.2-.4.6-.5 1-.3s.5.6.3 1l-.6 1.5c-.1.2-.4.4-.7.4m2.1-3.7c-.2 0-.3-.1-.5-.2-.3-.3-.3-.7-.1-1 .4-.5.8-.9 1.3-1.3.3-.3.8-.2 1 .1.3.3.2.8-.1 1-.4.3-.8.7-1.1 1.1-.1.2-.3.3-.5.3M34 18c-.3 0-.5-.1-.6-.4-.2-.4 0-.8.3-1 .5-.3 1.1-.5 1.7-.7.4-.1.8.1.9.5.1.4-.1.8-.5.9l-1.5.6c-.1.1-.2.1-.3.1M35.5 38.2h-.2c-.6-.2-1.1-.4-1.7-.7-.4-.2-.5-.6-.3-1s.6-.5 1-.3l1.5.6c.4.1.6.5.5.9-.2.3-.5.5-.8.5m-3.7-2.1c-.2 0-.3-.1-.5-.2-.5-.4-.9-.8-1.3-1.3-.3-.3-.2-.8.1-1 .3-.3.8-.2 1 .1.3.4.7.8 1.1 1.1.3.3.3.7.1 1-.1.2-.3.3-.5.3m-2.6-3.3c-.3 0-.5-.1-.6-.4-.3-.5-.5-1.1-.7-1.7-.1-.4.1-.8.5-.9.4-.1.8.1.9.5l.6 1.5c.2.4 0 .8-.3 1-.2-.1-.3 0-.4 0M38.9 38.7H38c-.4 0-.7-.4-.7-.8s.4-.7.8-.7h1.6c.4 0 .7.3.8.7 0 .4-.3.7-.7.8h-.9M28 28.6c-.4 0-.7-.3-.7-.7V27v-.9c0-.4.4-.7.8-.7s.7.4.7.8v1.6c-.1.5-.4.8-.8.8m21.8 0c-.4 0-.7-.4-.7-.8V27v-.8c0-.4.3-.7.7-.8.4 0 .7.3.8.7v1.8c-.1.5-.4.7-.8.7M38.1 16.9c-.4 0-.7-.3-.7-.7 0-.4.3-.7.7-.8h1.8c.4 0 .7.4.7.8s-.4.7-.8.7c-.6-.1-1.1-.1-1.7 0M41.9 34.5c-.3 0-.5-.2-.7-.4-.2-.4 0-.8.4-.9.4-.2.8-.4 1.2-.7.3-.2.8-.2 1 .2.2.3.2.8-.2 1-.4.3-.9.6-1.4.8h-.3m3-2.4c-.1 0-.3 0-.4-.1-.3-.2-.4-.7-.2-1 .3-.4.5-.8.7-1.2.2-.4.6-.5.9-.4.4.2.5.6.4.9-.2.5-.5 1-.8 1.4-.2.3-.4.4-.6.4M45.6 24.8c-.3 0-.5-.2-.7-.4-.2-.4-.4-.8-.7-1.2-.2-.3-.2-.8.2-1 .3-.2.8-.2 1 .2.3.4.6.9.8 1.4.2.4 0 .8-.4.9 0 .1-.1.1-.2.1m-2.4-3c-.1 0-.3 0-.4-.1-.4-.3-.8-.5-1.2-.7-.4-.2-.5-.6-.4-.9.2-.4.6-.5.9-.4.5.2 1 .5 1.4.8.3.2.4.7.2 1 0 .2-.3.3-.5.3M32.2 24.8c-.1 0-.2 0-.3-.1-.4-.2-.5-.6-.4-.9.2-.5.5-1 .8-1.4.2-.3.7-.4 1-.2.3.2.4.7.2 1-.3.4-.5.8-.7 1.2-.1.2-.3.4-.6.4m2.4-3c-.2 0-.4-.1-.6-.3-.2-.3-.2-.8.2-1 .4-.3.9-.6 1.4-.8.4-.2.8 0 .9.4.2.4 0 .8-.4.9-.4.2-.8.4-1.2.7 0 .1-.1.1-.3.1M35.9 34.5c-.1 0-.2 0-.3-.1-.5-.2-1-.5-1.4-.8-.3-.2-.4-.7-.2-1 .2-.3.7-.4 1-.2.4.3.8.5 1.2.7.4.2.5.6.4.9-.2.3-.4.5-.7.5M33 32.1c-.2 0-.4-.1-.6-.3-.3-.4-.6-.9-.8-1.4-.2-.4 0-.8.4-.9.4-.2.8 0 .9.4.2.4.4.8.7 1.2.2.3.2.8-.2 1-.2-.1-.3 0-.4 0M38.9 35.2h-.8c-.4 0-.7-.4-.6-.8 0-.4.4-.7.8-.6h1.3c.4 0 .7.2.8.6 0 .4-.2.7-.6.8-.3-.1-.6 0-.9 0m-7.3-6.7c-.4 0-.7-.3-.7-.6v-.8-.8c0-.4.4-.7.8-.6.4 0 .7.4.6.8v1.4c.1.2-.2.6-.7.6m14.6 0c-.5 0-.8-.4-.7-.8V27v-.7c0-.4.2-.7.6-.8.4 0 .7.2.8.6v1.6c0 .6-.3.8-.7.8m-8-8c-.4 0-.7-.3-.7-.6 0-.4.2-.7.6-.8.5-.1 1.1-.1 1.6 0 .4 0 .7.4.6.8 0 .4-.4.7-.8.6-.4-.1-.8-.1-1.3 0M29.3 7c-.4 0-.7-.3-.7-.7V4.5c0-.4.3-.7.7-.7.4 0 .7.3.7.7v1.7c0 .4-.3.8-.7.8M44.7 1.7h-2c-.3 0-.7-.3-.7-.7 0-.4.3-.7.7-.7h2c.4 0 .7.3.7.7 0 .4-.3.7-.7.7m-4.8 0h-2c-.4 0-.7-.3-.7-.7 0-.4.3-.7.7-.7h2c.4 0 .7.3.7.7 0 .4-.3.7-.7.7m-4.8 0h-2c-.4 0-.7-.3-.7-.7 0-.4.3-.7.7-.7h2c.4 0 .7.3.7.7 0 .4-.3.7-.7.7M48.5 7c-.4 0-.7-.3-.7-.7V4.5c0-.4.3-.7.7-.7.4 0 .7.3.7.7v1.7c.1.4-.3.8-.7.8M48.5 10.5c-.4 0-.7-.3-.7-.7v-.9c0-.4.3-.7.7-.7.4 0 .7.3.7.7v.9c.1.3-.3.7-.7.7m-19.2 0c-.4 0-.7-.3-.7-.7v-.9c0-.4.3-.7.7-.7.4 0 .7.3.7.7v.9c0 .3-.3.7-.7.7m19.2-7.9c-.4 0-.7-.3-.7-.7v-.2h-.3c-.4 0-.7-.3-.7-.7 0-.4.3-.7.7-.7h1.7v1.6c.1.3-.3.7-.7.7m-19.2 0c-.4 0-.7-.3-.7-.7V.3h1.7c.4 0 .7.3.7.7 0 .4-.3.7-.7.7H30v.2c0 .3-.3.7-.7.7M11.5 41.6c-.4 0-.7-.3-.7-.7v-1.7c0-.4.3-.7.7-.7.4 0 .7.3.7.7v1.7c0 .4-.4.7-.7.7m0-4.4c-.4 0-.7-.3-.7-.7v-1.7c0-.4.3-.7.7-.7.4 0 .7.3.7.7v1.7c0 .4-.4.7-.7.7m0-4.3c-.4 0-.7-.3-.7-.7v-1.7c0-.4.3-.7.7-.7.4 0 .7.3.7.7v1.7c0 .4-.4.7-.7.7m0-4.4c-.4 0-.7-.3-.7-.7v-1.7c0-.4.3-.7.7-.7.4 0 .7.3.7.7v1.7c0 .4-.4.7-.7.7m0-4.4c-.4 0-.7-.3-.7-.7v-1.7c0-.4.3-.7.7-.7.4 0 .7.3.7.7v1.7c0 .4-.4.7-.7.7m0-4.3c-.4 0-.7-.3-.7-.7v-1.7c0-.4.3-.7.7-.7.4 0 .7.3.7.7v1.7c0 .4-.4.7-.7.7m0-4.4c-.4 0-.7-.3-.7-.7V13c0-.4.3-.7.7-.7.4 0 .7.3.7.7v1.7c0 .4-.4.7-.7.7m0-4.4c-.4 0-.7-.3-.7-.7V8.6c0-.4.3-.7.7-.7.4 0 .7.3.7.7v1.7c0 .4-.4.7-.7.7m0-4.3c-.4 0-.7-.3-.7-.7V4.2c0-.4.3-.7.7-.7.4 0 .7.3.7.7V6c0 .3-.4.7-.7.7M62.7 45.1h-1.8c-.4 0-.7-.3-.7-.7 0-.4.3-.7.7-.7h1.8c.4 0 .7.3.7.7.1.4-.3.7-.7.7m-4.5 0h-1.8c-.4 0-.7-.3-.7-.7 0-.4.3-.7.7-.7h1.8c.4 0 .7.3.7.7 0 .4-.3.7-.7.7m-4.6 0h-1.8c-.4 0-.7-.3-.7-.7 0-.4.3-.7.7-.7h1.8c.4 0 .7.3.7.7 0 .4-.3.7-.7.7m-4.6 0h-1.8c-.4 0-.7-.3-.7-.7 0-.4.3-.7.7-.7H49c.4 0 .7.3.7.7 0 .4-.3.7-.7.7m-4.6 0h-1.8c-.4 0-.7-.3-.7-.7 0-.4.3-.7.7-.7h1.8c.4 0 .7.3.7.7 0 .4-.3.7-.7.7m-4.5 0H38c-.4 0-.7-.3-.7-.7 0-.4.3-.7.7-.7h1.8c.4 0 .7.3.7.7.1.4-.3.7-.6.7m-4.6 0h-1.8c-.4 0-.7-.3-.7-.7 0-.4.3-.7.7-.7h1.8c.4 0 .7.3.7.7 0 .4-.3.7-.7.7m-4.6 0h-1.8c-.4 0-.7-.3-.7-.7 0-.4.3-.7.7-.7h1.8c.4 0 .7.3.7.7 0 .4-.3.7-.7.7m-4.6 0h-1.8c-.4 0-.7-.3-.7-.7 0-.4.3-.7.7-.7h1.8c.4 0 .7.3.7.7 0 .4-.3.7-.7.7m-4.6 0h-1.8c-.4 0-.7-.3-.7-.7 0-.4.3-.7.7-.7h1.8c.4 0 .7.3.7.7 0 .4-.3.7-.7.7m-4.5 0h-1.8c-.4 0-.7-.3-.7-.7 0-.4.3-.7.7-.7H17c.4 0 .7.3.7.7 0 .4-.4.7-.7.7M66.4 41.6c-.4 0-.7-.3-.7-.7v-1.7c0-.4.3-.7.7-.7.4 0 .7.3.7.7v1.7c0 .4-.3.7-.7.7m0-4.3c-.4 0-.7-.3-.7-.7v-1.7c0-.4.3-.7.7-.7.4 0 .7.3.7.7v1.7c0 .4-.3.7-.7.7m0-4.3c-.4 0-.7-.3-.7-.7v-1.7c0-.4.3-.7.7-.7.4 0 .7.3.7.7v1.7c0 .4-.3.7-.7.7m0-4.3c-.4 0-.7-.3-.7-.7v-1.7c0-.4.3-.7.7-.7.4 0 .7.3.7.7V28c0 .3-.3.7-.7.7m0-4.4c-.4 0-.7-.3-.7-.7v-1.7c0-.4.3-.7.7-.7.4 0 .7.3.7.7v1.7c0 .4-.3.7-.7.7m0-4.3c-.4 0-.7-.3-.7-.7v-1.7c0-.4.3-.7.7-.7.4 0 .7.3.7.7v1.7c0 .4-.3.7-.7.7m0-4.3c-.4 0-.7-.3-.7-.7v-1.7c0-.4.3-.7.7-.7.4 0 .7.3.7.7V15c0 .3-.3.7-.7.7"/><path class="st1" d="M62.9 10.5h-1.7c-.4 0-.7-.3-.7-.7 0-.4.3-.7.7-.7h1.7c.4 0 .7.3.7.7 0 .4-.3.7-.7.7m-4.3 0h-1.7c-.4 0-.7-.3-.7-.7 0-.4.3-.7.7-.7h1.7c.4 0 .7.3.7.7 0 .4-.3.7-.7.7m-4.3 0h-1.7c-.4 0-.7-.3-.7-.7 0-.4.3-.7.7-.7h1.7c.4-.1.7.3.7.7 0 .4-.3.7-.7.7m-4.3 0h-1.7c-.4 0-.7-.3-.7-.7 0-.4.3-.7.7-.7H50c.4 0 .7.3.7.7 0 .4-.3.7-.7.7m-4.4 0h-1.7c-.4 0-.7-.3-.7-.7 0-.4.3-.7.7-.7h1.7c.4 0 .7.3.7.7.1.4-.3.7-.7.7m-4.3 0h-1.7c-.4 0-.7-.3-.7-.7 0-.4.3-.7.7-.7h1.7c.4-.1.7.3.7.7 0 .4-.3.7-.7.7m-4.3 0h-1.7c-.4 0-.7-.3-.7-.7 0-.4.3-.7.7-.7H37c.4 0 .7.3.7.7 0 .4-.3.7-.7.7m-4.3 0H31c-.4 0-.7-.3-.7-.7 0-.4.3-.8.7-.8h1.7c.4 0 .7.3.7.7 0 .5-.3.8-.7.8m-4.3 0h-1.7c-.4 0-.7-.3-.7-.7 0-.4.3-.7.7-.7h1.7c.4 0 .7.3.7.7 0 .4-.3.7-.7.7m-4.4 0h-1.7c-.4 0-.7-.3-.7-.7 0-.4.3-.7.7-.7H24c.4 0 .7.3.7.7.1.4-.3.7-.7.7m-4.3 0H18c-.4 0-.7-.3-.7-.7 0-.4.3-.8.7-.8h1.7c.4 0 .7.3.7.7 0 .5-.3.8-.7.8m-4.3 0h-1.7c-.4 0-.7-.3-.7-.7 0-.4.3-.8.7-.8h1.7c.4 0 .7.3.7.7 0 .5-.3.8-.7.8m-4.3 0H9.4c-.4 0-.7-.3-.7-.7-.1-.4.3-.8.7-.8h1.7c.4 0 .7.3.7.7 0 .5-.3.8-.7.8m-4.3 0H5c-.4 0-.7-.3-.7-.7 0-.4.3-.8.7-.8h1.7c.4 0 .7.3.7.7.1.5-.3.8-.6.8m-4.4 0H.7c-.4 0-.7-.3-.7-.7 0-.4.3-.8.7-.8h1.7c.4 0 .7.3.7.7 0 .5-.3.8-.7.8M67.1 45.1h-1.6c-.4 0-.7-.3-.7-.7 0-.4.3-.7.7-.7h.2v-.1c0-.4.3-.7.7-.7.4 0 .7.3.7.7v1.5zm-54.7 0h-1.6v-1.6c0-.4.3-.7.7-.7.4 0 .7.3.7.7v.2h.2c.4 0 .7.3.7.7 0 .4-.3.7-.7.7m54-33.8c-.4 0-.7-.3-.7-.7v-.1h-.1c-.4 0-.7-.3-.7-.7 0-.4.3-.7.7-.7h1.6v1.6c-.1.3-.4.6-.8.6m-54.9-9c-.4 0-.7-.3-.7-.7V.7c0-.4.3-.7.7-.7.4 0 .7.3.7.7v.9c0 .4-.4.7-.7.7M46.4 36.1c-.3 0-.5-.1-.6-.4-.2-.4 0-.8.3-1l1.7-.9c.4-.2.8 0 1 .3.2.4 0 .8-.3 1l-1.8.9c-.1.1-.2.1-.3.1m4.1-2.1c-.3 0-.5-.1-.6-.4-.2-.4 0-.8.3-1l1.7-.9c.4-.2.8 0 1 .3.2.4 0 .8-.3 1l-1.7.9c-.1.1-.2.1-.4.1m4.2-2.1c-.3 0-.5-.1-.6-.4-.2-.4 0-.8.3-1l1.7-.9c.4-.2.8 0 1 .3.2.4 0 .8-.3 1l-1.8.9c-.1 0-.2.1-.3.1m4.1-2.2c-.3 0-.5-.1-.6-.4-.2-.4 0-.8.3-1l1.7-.9c.4-.2.8 0 1 .3.2.4 0 .8-.3 1l-1.7.9c-.2.1-.3.1-.4.1m4.1-2.1c-.3 0-.5-.1-.6-.4-.2-.4 0-.8.3-1l1.7-.9c.4-.2.8 0 1 .3s0 .8-.3 1l-1.7.9c-.2.1-.3.1-.4.1m4.2-2.1c-.3 0-.5-.1-.6-.4-.2-.4 0-.8.3-1l1.7-.9c.3-.2.8 0 1 .3.2.4 0 .8-.3 1l-1.7.9c-.2 0-.3.1-.4.1m4.1-2.2c-.3 0-.5-.1-.6-.4-.2-.4 0-.8.3-1l1.7-.9c.3-.2.8 0 1 .3.2.4 0 .8-.3 1l-1.7.9c-.2.1-.3.1-.4.1m4.1-2.1c-.3 0-.5-.1-.6-.4-.2-.4 0-.8.3-1l1.7-.9c.3-.2.8 0 1 .3.2.4 0 .8-.3 1l-1.7.9c-.2.1-.3.1-.4.1m4.1-2.1c-.3 0-.5-.1-.6-.4-.2-.4 0-.8.3-1l1.7-.9c.4-.2.8 0 1 .3.2.4 0 .8-.3 1l-1.7.9c-.1 0-.3.1-.4.1"/></g></svg>