<svg version="1.1" id="Слой_1" xmlns="http://www.w3.org/2000/svg" x="0" y="0" width="656.3" height="132" xml:space="preserve"><style>.st0{fill:#fff}</style><path class="st0" d="M204.1 48.7h-16.6v44.9h-12.6V48.7h-16.6V37.6h45.8zM248 93.6h-12.3V71c0-2.6-.5-4.5-1.5-5.8-1-1.2-2.4-1.8-4.2-1.8-.7 0-1.5.2-2.3.5-.8.3-1.7.8-2.5 1.5-.8.6-1.5 1.4-2.2 2.3-.7.9-1.2 1.8-1.5 2.9v23.1h-12.3v-56h12.3v22.5c1.5-2.4 3.4-4.3 5.9-5.6 2.4-1.3 5.1-2 8-2 2.7 0 4.9.5 6.6 1.4 1.7.9 2.9 2.2 3.8 3.6.9 1.5 1.5 3.1 1.8 4.9.3 1.8.5 3.6.5 5.3v25.8zM256.2 53.3h12.3v40.3h-12.3V53.3zm0-15.7h12.3v11.7h-12.3V37.6zM315.7 93.6h-12.3V71c0-2.7-.5-4.6-1.5-5.8-1-1.2-2.3-1.8-4-1.8-.9 0-1.7.2-2.6.5-.9.4-1.7.9-2.5 1.5s-1.5 1.4-2.2 2.3c-.6.9-1.1 1.8-1.5 2.8v23.1h-12.3V53.3h11v6.8c1.5-2.4 3.6-4.3 6.3-5.6 2.7-1.3 5.8-2 9.4-2 2.6 0 4.7.5 6.3 1.4 1.6.9 2.8 2.2 3.7 3.7.9 1.5 1.4 3.2 1.7 4.9.3 1.8.4 3.5.4 5.2v25.9zM350.9 93.6l-10.5-16.2-4.3 4.5v11.7h-12.2v-56h12.2v32.5l13.6-16.8h13.1l-14.5 17.4L364 93.6zM392.6 63.5h10.3c1.5 0 2.8-.6 3.8-1.9 1.1-1.3 1.6-3.1 1.6-5.6 0-1.3-.2-2.4-.5-3.3-.3-.9-.8-1.7-1.3-2.3-.6-.6-1.2-1.1-1.9-1.3-.7-.3-1.4-.4-2.1-.4h-9.8v14.8zM380 93.6v-56h23.2c2.6 0 5 .5 7.2 1.6s4 2.5 5.6 4.2c1.6 1.7 2.8 3.7 3.7 5.9.9 2.2 1.3 4.4 1.3 6.7 0 2.4-.4 4.7-1.3 6.9-.8 2.2-2 4.2-3.5 5.9-1.5 1.7-3.3 3.1-5.5 4.1-2.2 1-4.5 1.5-7.1 1.5h-11v19.1H380zM426.7 37.6H439v41.7c0 3.1 1.3 4.6 3.9 4.6.6 0 1.3-.1 2-.3.7-.2 1.4-.4 2-.8l1.6 9.2c-1.5.7-3.3 1.3-5.3 1.7-2 .4-3.9.6-5.6.6-3.5 0-6.2-.9-8.1-2.8-1.9-1.8-2.8-4.5-2.8-8V37.6zM464.7 94.4c-4.1 0-7.3-1.3-9.4-3.9-2.1-2.6-3.2-6.4-3.2-11.4V53.3h12.3v23.1c0 2.5.5 4.3 1.5 5.6 1 1.3 2.4 2 4.1 2 1.6 0 3.2-.4 4.8-1.3 1.5-.9 2.9-2.4 4.1-4.5V53.3h12.3v26.5c0 1.2.2 2.1.6 2.6.4.5 1.1.8 2 .9v10.4c-1.2.3-2.2.4-3 .5-.8.1-1.6.1-2.2.1-4.4 0-6.9-1.7-7.5-5.1l-.2-2.5c-1.8 2.7-4.1 4.6-6.9 5.9-2.8 1.2-5.9 1.8-9.3 1.8M516.5 94.4c-3.4 0-6.8-.5-10.1-1.6s-6.1-2.7-8.4-4.8l4.4-7.5c2.5 1.7 4.8 3 7.2 3.9 2.3.9 4.6 1.4 6.7 1.4 1.6 0 2.8-.3 3.7-.8.9-.6 1.3-1.4 1.3-2.5s-.6-1.9-1.7-2.6c-1.1-.6-3-1.3-5.8-2-2.7-.8-5-1.5-6.9-2.2-1.9-.7-3.4-1.5-4.6-2.4-1.2-.9-2-1.9-2.5-3s-.8-2.5-.8-4c0-2 .4-3.9 1.2-5.6.8-1.7 1.9-3.1 3.4-4.3 1.4-1.2 3.1-2.1 5.1-2.8 2-.7 4.1-1 6.4-1 3 0 5.8.4 8.5 1.2 2.6.8 5.2 2.3 7.6 4.5l-4.8 7.4c-2.3-1.6-4.3-2.7-6.1-3.5-1.8-.7-3.5-1.1-5.2-1.1-1.3 0-2.5.3-3.4.8-.9.5-1.4 1.4-1.4 2.6 0 1.1.5 2 1.5 2.5 1 .6 2.8 1.2 5.6 1.8 2.9.8 5.3 1.5 7.3 2.3 2 .8 3.6 1.6 4.8 2.6 1.2.9 2.1 2 2.7 3.3.6 1.2.8 2.7.8 4.4 0 4-1.5 7.2-4.4 9.5-3 2.3-7 3.5-12.1 3.5M548.5 37.6h12.6v56h-12.6zM608 93.6h-12.3V71c0-2.7-.5-4.6-1.5-5.8-1-1.2-2.3-1.8-4-1.8-.9 0-1.7.2-2.6.5-.9.4-1.7.9-2.5 1.5s-1.5 1.4-2.2 2.3c-.6.9-1.1 1.8-1.5 2.8v23.1h-12.3V53.3h11.1v6.8c1.5-2.4 3.6-4.3 6.3-5.6 2.7-1.3 5.8-2 9.4-2 2.6 0 4.7.5 6.3 1.4 1.6.9 2.8 2.2 3.7 3.7.9 1.5 1.4 3.2 1.7 4.9.3 1.8.4 3.5.4 5.2v25.9zM616.1 37.6v56h12.3V81.9l4.3-4.5 10.5 16.2h13.1l-15.8-22.9L655 53.3h-13l-13.6 16.8V37.6zM0 50.6v11.8c16.8 0 32.1-6.7 43.3-17.5V24.3c-5.5 9.8-14.2 17.5-24.7 21.8-5.7 2.3-12 3.6-18.6 3.6v.9zM131.2 81.4V69.5c-16.8 0-32.1 6.7-43.3 17.5v20.6c5.5-9.8 14.2-17.5 24.7-21.7 5.8-2.3 12.1-3.6 18.7-3.6v-.9zM95.9 51.5c5.3-2.3 10.9-4.2 16.7-5.4-10.5-4.3-19.2-12-24.7-21.7V45c2.5 2.3 5.2 4.5 8 6.5M35.4 80.5c-5.3 2.3-10.9 4.2-16.7 5.4 10.5 4.3 19.2 12 24.7 21.8V87.1c-2.5-2.4-5.2-4.6-8-6.6M62.4 61.9c-3.9 3.9-8.2 7.5-12.7 10.6V99c3.2-7.9 7.5-15.2 12.7-21.8V61.9zM49.7 37.8c8-10.5 12.7-23.6 12.7-37.8H49.7v37.8zM81.6 94.2c-7.9 10.4-12.6 23.2-12.7 37.2v.6h12.7V94.2zM81.6 32.9c-3.2 7.9-7.5 15.3-12.7 21.8V70.1c3.9-3.9 8.2-7.5 12.7-10.6V32.9z"/><path class="st0" d="M0 68.8v12.5c44.9 0 81.4-36.4 81.4-81.4H68.8C68.8 38 38 68.8 0 68.8M131.2 63.2V50.6C86.3 50.6 49.8 87 49.8 132h12.5c.1-38 30.9-68.8 68.9-68.8"/></svg>