<svg version="1.1" id="Слой_1" xmlns="http://www.w3.org/2000/svg" x="0" y="0" width="131.2" height="132" xml:space="preserve"><style>.st0{fill:#363637}</style><path class="st0" d="M0 50.6v11.8c16.8 0 32.1-6.7 43.3-17.5V24.3c-5.5 9.8-14.2 17.5-24.7 21.8-5.7 2.3-12 3.6-18.6 3.6v.9zM131.2 81.4V69.5c-16.8 0-32.1 6.7-43.3 17.5v20.6c5.5-9.8 14.2-17.5 24.7-21.7 5.8-2.3 12.1-3.6 18.7-3.6l-.1-.9zM95.9 51.5c5.3-2.3 10.9-4.2 16.7-5.4-10.5-4.3-19.2-12-24.7-21.7V45c2.5 2.3 5.2 4.5 8 6.5M35.4 80.5c-5.3 2.3-10.9 4.2-16.7 5.4 10.5 4.3 19.2 12 24.7 21.8V87.1c-2.5-2.4-5.2-4.6-8-6.6M62.4 61.9c-3.9 3.9-8.2 7.5-12.7 10.6V99c3.2-7.9 7.5-15.2 12.7-21.8V61.9zM49.7 37.8c8-10.5 12.7-23.6 12.7-37.8H49.7v37.8zM81.6 94.2c-7.9 10.4-12.6 23.2-12.7 37.2v.6h12.7V94.2zM81.6 32.9c-3.2 7.9-7.5 15.3-12.7 21.8V70.1c3.9-3.9 8.2-7.5 12.7-10.6V32.9z"/><path class="st0" d="M0 68.8v12.5c44.9 0 81.4-36.4 81.4-81.4H68.8C68.8 38 38 68.8 0 68.8M131.2 63.2V50.6C86.3 50.6 49.8 87 49.8 132h12.5c.1-38 30.9-68.8 68.9-68.8"/></svg>